<svg xmlns="http://www.w3.org/2000/svg" xmlns:xlink="http://www.w3.org/1999/xlink" width="54" zoomAndPan="magnify" viewBox="0 0 40.5 32.249999" height="43" preserveAspectRatio="xMidYMid meet" version="1.0"><defs><clipPath id="f8facb071b"><path d="M 0.214844 2.371094 L 39.796875 2.371094 L 39.796875 29.492188 L 0.214844 29.492188 Z M 0.214844 2.371094 " clip-rule="nonzero"/></clipPath><clipPath id="bba0f61740"><path d="M 11.429688 2.539062 L 13.148438 3.578125 C 13.453125 3.761719 13.519531 4.171875 13.296875 4.449219 C 10.789062 7.535156 8.511719 10.886719 8.511719 15.035156 C 11.933594 15.035156 15.460938 17.855469 15.460938 21.464844 C 15.460938 26.507812 11.40625 29.648438 7.351562 29.066406 C 3.296875 28.480469 0.898438 25.558594 0.402344 22.050781 C -0.738281 14.007812 3.699219 6.761719 10.230469 2.546875 C 10.59375 2.3125 11.058594 2.316406 11.429688 2.539062 Z M 35.757812 2.539062 L 37.472656 3.578125 C 37.777344 3.761719 37.847656 4.171875 37.625 4.449219 C 35.117188 7.535156 32.835938 10.886719 32.835938 15.035156 C 36.261719 15.035156 39.789062 17.855469 39.789062 21.464844 C 39.789062 26.507812 35.734375 29.648438 31.679688 29.066406 C 27.625 28.480469 25.226562 25.558594 24.730469 22.050781 C 23.589844 14.007812 28.023438 6.761719 34.558594 2.546875 C 34.921875 2.3125 35.386719 2.316406 35.757812 2.539062 Z M 35.757812 2.539062 " clip-rule="evenodd"/></clipPath></defs><g clip-path="url(#f8facb071b)"><g clip-path="url(#bba0f61740)"><path fill="#119f00" d="M 0.214844 2.371094 L 0.214844 29.492188 L 39.789062 29.492188 L 39.789062 2.371094 Z M 0.214844 2.371094 " fill-opacity="1" fill-rule="nonzero"/></g></g></svg>