<svg xmlns="http://www.w3.org/2000/svg" xmlns:xlink="http://www.w3.org/1999/xlink" width="52" zoomAndPan="magnify" viewBox="0 0 39 31.5" height="42" preserveAspectRatio="xMidYMid meet" version="1.0"><defs><filter x="0%" y="0%" width="100%" height="100%" id="23aaa4c438"><feColorMatrix values="0 0 0 0 1 0 0 0 0 1 0 0 0 0 1 0 0 0 1 0" color-interpolation-filters="sRGB"/></filter><mask id="70fd9a75bf"><g filter="url(#23aaa4c438)"><rect x="-3.9" width="46.8" fill="#000000" y="-3.15" height="37.8" fill-opacity="0.15"/></g></mask><clipPath id="103153176a"><path d="M 0.0117188 1 L 36.867188 1 L 36.867188 24.351562 L 0.0117188 24.351562 Z M 0.0117188 1 " clip-rule="nonzero"/></clipPath><clipPath id="835d11423f"><path d="M 0.679688 3.183594 C 0.679688 2.171875 1.5 1.355469 2.507812 1.355469 L 34.308594 1.355469 C 35.320312 1.355469 36.136719 2.171875 36.136719 3.183594 L 36.136719 22.363281 C 36.136719 23.371094 35.320312 24.191406 34.308594 24.191406 L 21.433594 24.191406 C 25.296875 22.953125 28.09375 19.332031 28.09375 15.054688 C 28.09375 9.757812 23.800781 5.464844 18.5 5.464844 C 13.199219 5.464844 8.90625 9.757812 8.90625 15.054688 C 8.90625 19.332031 11.703125 22.953125 15.566406 24.191406 L 2.507812 24.191406 C 1.5 24.191406 0.679688 23.371094 0.679688 22.363281 Z M 18.5 19.625 C 21.023438 19.625 23.070312 17.578125 23.070312 15.054688 C 23.070312 12.535156 21.023438 10.488281 18.5 10.488281 C 15.976562 10.488281 13.929688 12.535156 13.929688 15.054688 C 13.929688 17.578125 15.976562 19.625 18.5 19.625 Z M 18.5 19.625 " clip-rule="evenodd"/></clipPath><clipPath id="ceab8a6ce4"><rect x="0" width="37" y="0" height="25"/></clipPath><clipPath id="7e0b7ef492"><path d="M 1 18 L 3 18 L 3 22 L 1 22 Z M 1 18 " clip-rule="nonzero"/></clipPath><clipPath id="8fb7e64a1b"><path d="M 2.179688 20.585938 C 2.179688 20.820312 1.992188 21.007812 1.757812 21.007812 C 1.527344 21.007812 1.335938 20.820312 1.335938 20.585938 L 1.335938 18.421875 C 1.335938 18.1875 1.527344 18 1.757812 18 C 1.992188 18 2.179688 18.1875 2.179688 18.421875 Z M 2.179688 20.585938 " clip-rule="nonzero"/></clipPath><clipPath id="43545af1ed"><path d="M 0.304688 16 L 4 16 L 4 23 L 0.304688 23 Z M 0.304688 16 " clip-rule="nonzero"/></clipPath><clipPath id="9f72431692"><path d="M 1 1 L 38 1 L 38 30 L 1 30 Z M 1 1 " clip-rule="nonzero"/></clipPath><clipPath id="98e62ffc6b"><path d="M 35.714844 5.195312 L 33.496094 5.195312 L 33.496094 4.941406 C 33.496094 4.226562 32.914062 3.644531 32.199219 3.644531 L 31.972656 3.644531 L 31.972656 3 C 31.972656 2.285156 31.390625 1.703125 30.675781 1.703125 L 28.117188 1.703125 C 27.402344 1.703125 26.816406 2.285156 26.816406 3 L 26.816406 3.644531 L 26.589844 3.644531 C 25.875 3.644531 25.292969 4.226562 25.292969 4.941406 L 25.292969 5.195312 L 17.671875 5.195312 L 17.671875 4.636719 C 17.671875 3.921875 17.089844 3.339844 16.371094 3.339844 L 15.339844 3.339844 C 14.625 3.339844 14.042969 3.921875 14.042969 4.636719 L 14.042969 5.195312 L 12.789062 5.195312 L 12.789062 3.875 C 12.789062 3.160156 12.207031 2.578125 11.492188 2.578125 L 5.882812 2.578125 C 5.167969 2.578125 4.585938 3.160156 4.585938 3.875 L 4.585938 5.195312 L 3.285156 5.195312 C 2.148438 5.195312 1.222656 6.121094 1.222656 7.253906 L 1.222656 16.089844 C 1.222656 16.386719 1.464844 16.625 1.757812 16.625 C 2.054688 16.625 2.292969 16.386719 2.292969 16.089844 L 2.292969 11.007812 L 5.226562 11.007812 C 5.460938 11.871094 6.25 12.507812 7.1875 12.507812 C 8.125 12.507812 8.914062 11.871094 9.148438 11.007812 L 13.402344 11.007812 C 10.933594 12.863281 9.332031 15.816406 9.332031 19.136719 C 9.332031 21.316406 10.023438 23.335938 11.195312 24.992188 L 2.292969 24.992188 L 2.292969 22.917969 C 2.292969 22.621094 2.054688 22.382812 1.757812 22.382812 C 1.464844 22.382812 1.222656 22.621094 1.222656 22.917969 L 1.222656 26.265625 C 1.222656 27.402344 2.148438 28.324219 3.285156 28.324219 L 15.160156 28.324219 C 16.476562 28.949219 17.949219 29.300781 19.5 29.300781 C 21.054688 29.300781 22.523438 28.949219 23.84375 28.324219 C 23.847656 28.324219 23.851562 28.324219 23.855469 28.324219 L 35.714844 28.324219 C 36.851562 28.324219 37.777344 27.402344 37.777344 26.265625 L 37.777344 7.253906 C 37.777344 6.121094 36.851562 5.195312 35.714844 5.195312 Z M 27.890625 3 C 27.890625 2.875 27.992188 2.773438 28.117188 2.773438 L 30.675781 2.773438 C 30.800781 2.773438 30.902344 2.875 30.902344 3 L 30.902344 3.644531 L 27.890625 3.644531 Z M 26.363281 4.941406 C 26.363281 4.816406 26.464844 4.714844 26.589844 4.714844 L 32.199219 4.714844 C 32.324219 4.714844 32.425781 4.816406 32.425781 4.941406 L 32.425781 5.195312 L 26.363281 5.195312 Z M 15.113281 4.636719 C 15.113281 4.511719 15.214844 4.410156 15.339844 4.410156 L 16.371094 4.410156 C 16.5 4.410156 16.601562 4.511719 16.601562 4.636719 L 16.601562 5.195312 L 15.113281 5.195312 Z M 5.65625 3.875 C 5.65625 3.75 5.757812 3.648438 5.882812 3.648438 L 11.492188 3.648438 C 11.617188 3.648438 11.71875 3.75 11.71875 3.875 L 11.71875 5.195312 L 5.65625 5.195312 Z M 7.1875 11.4375 C 6.65625 11.4375 6.222656 11.003906 6.222656 10.472656 C 6.222656 9.941406 6.65625 9.507812 7.1875 9.507812 C 7.71875 9.507812 8.152344 9.941406 8.152344 10.472656 C 8.152344 11.003906 7.71875 11.4375 7.1875 11.4375 Z M 9.148438 9.9375 C 8.914062 9.074219 8.125 8.4375 7.1875 8.4375 C 6.25 8.4375 5.460938 9.074219 5.226562 9.9375 L 2.292969 9.9375 L 2.292969 7.253906 C 2.292969 6.710938 2.738281 6.265625 3.285156 6.265625 L 35.714844 6.265625 C 36.261719 6.265625 36.707031 6.710938 36.707031 7.253906 L 36.707031 9.9375 L 35.113281 9.9375 L 35.113281 7.992188 C 35.113281 7.695312 34.871094 7.457031 34.578125 7.457031 L 29.59375 7.457031 C 29.296875 7.457031 29.058594 7.695312 29.058594 7.992188 L 29.058594 9.9375 L 23.820312 9.9375 C 22.480469 9.308594 21.007812 8.972656 19.5 8.972656 C 17.957031 8.972656 16.492188 9.320312 15.179688 9.9375 Z M 30.128906 9.9375 L 30.128906 8.527344 L 34.042969 8.527344 L 34.042969 9.9375 Z M 3.285156 27.253906 C 2.738281 27.253906 2.292969 26.8125 2.292969 26.265625 L 2.292969 26.0625 L 12.066406 26.0625 C 12.472656 26.496094 12.914062 26.894531 13.390625 27.253906 Z M 10.402344 19.136719 C 10.402344 14.121094 14.484375 10.042969 19.5 10.042969 C 22.101562 10.042969 24.585938 11.160156 26.3125 13.109375 C 26.507812 13.332031 26.847656 13.351562 27.066406 13.15625 C 27.289062 12.960938 27.308594 12.621094 27.113281 12.398438 C 26.652344 11.882812 26.144531 11.417969 25.601562 11.007812 L 36.707031 11.007812 L 36.707031 24.992188 L 27.804688 24.992188 C 28.625 23.835938 29.207031 22.503906 29.484375 21.066406 L 30.882812 21.066406 C 31.675781 21.066406 32.316406 20.421875 32.316406 19.632812 L 32.316406 18.300781 C 32.316406 17.511719 31.675781 16.867188 30.882812 16.867188 L 29.410156 16.867188 C 29.214844 16.015625 28.914062 15.191406 28.507812 14.417969 C 28.371094 14.15625 28.046875 14.054688 27.785156 14.195312 C 27.523438 14.332031 27.421875 14.652344 27.558594 14.914062 C 28.238281 16.207031 28.597656 17.667969 28.597656 19.136719 C 28.597656 24.148438 24.515625 28.230469 19.5 28.230469 C 14.484375 28.230469 10.402344 24.148438 10.402344 19.136719 Z M 29.597656 17.9375 L 30.882812 17.9375 C 31.082031 17.9375 31.246094 18.101562 31.246094 18.300781 L 31.246094 19.632812 C 31.246094 19.832031 31.082031 19.996094 30.882812 19.996094 L 29.632812 19.996094 C 29.65625 19.710938 29.667969 19.425781 29.667969 19.136719 C 29.667969 18.734375 29.644531 18.335938 29.597656 17.9375 Z M 35.714844 27.253906 L 25.609375 27.253906 C 26.085938 26.894531 26.527344 26.496094 26.933594 26.0625 L 36.707031 26.0625 L 36.707031 26.265625 C 36.707031 26.8125 36.261719 27.253906 35.714844 27.253906 Z M 35.714844 27.253906 " clip-rule="nonzero"/></clipPath><clipPath id="622ccb0702"><path d="M 0.304688 0.878906 L 38.695312 0.878906 L 38.695312 30.410156 L 0.304688 30.410156 Z M 0.304688 0.878906 " clip-rule="nonzero"/></clipPath><clipPath id="3ef7fbc25a"><path d="M 12 12 L 27 12 L 27 27 L 12 27 Z M 12 12 " clip-rule="nonzero"/></clipPath><clipPath id="80fb6d5e59"><path d="M 12.410156 19.136719 C 12.410156 15.226562 15.589844 12.046875 19.5 12.046875 C 23.410156 12.046875 26.589844 15.226562 26.589844 19.136719 C 26.589844 23.042969 23.410156 26.222656 19.5 26.222656 C 15.589844 26.222656 12.410156 23.042969 12.410156 19.136719 Z M 13.253906 19.136719 C 13.253906 22.578125 16.054688 25.378906 19.5 25.378906 C 22.945312 25.378906 25.746094 22.578125 25.746094 19.136719 C 25.746094 15.691406 22.945312 12.890625 19.5 12.890625 C 16.054688 12.890625 13.253906 15.691406 13.253906 19.136719 Z M 13.253906 19.136719 " clip-rule="nonzero"/></clipPath><clipPath id="519687d6bf"><path d="M 14 14 L 25 14 L 25 25 L 14 25 Z M 14 14 " clip-rule="nonzero"/></clipPath><clipPath id="9128e2645c"><path d="M 14.582031 19.136719 C 14.582031 16.425781 16.789062 14.21875 19.5 14.21875 C 22.210938 14.21875 24.417969 16.425781 24.417969 19.136719 C 24.417969 21.847656 22.210938 24.050781 19.5 24.050781 C 16.789062 24.050781 14.582031 21.847656 14.582031 19.136719 Z M 15.425781 19.136719 C 15.425781 21.382812 17.253906 23.210938 19.5 23.210938 C 21.746094 23.210938 23.574219 21.382812 23.574219 19.136719 C 23.574219 16.890625 21.746094 15.0625 19.5 15.0625 C 17.253906 15.0625 15.425781 16.890625 15.425781 19.136719 Z M 15.425781 19.136719 " clip-rule="nonzero"/></clipPath></defs><g mask="url(#70fd9a75bf)"><g transform="matrix(1, 0, 0, 1, 1, 4)"><g clip-path="url(#ceab8a6ce4)"><g clip-path="url(#103153176a)"><g clip-path="url(#835d11423f)"><path fill="#05ec07" d="M 0.679688 1.355469 L 0.679688 24.191406 L 36.136719 24.191406 L 36.136719 1.355469 Z M 0.679688 1.355469 " fill-opacity="1" fill-rule="nonzero"/></g></g></g></g></g><g clip-path="url(#7e0b7ef492)"><g clip-path="url(#8fb7e64a1b)"><path fill="#05ec07" d="M 1.335938 18 L 1.335938 21.007812 L 2.179688 21.007812 L 2.179688 18 Z M 1.335938 18 " fill-opacity="1" fill-rule="nonzero"/></g></g><g clip-path="url(#43545af1ed)"><path stroke-linecap="butt" transform="matrix(0.913839, 0, 0, 0.913839, 0.309374, 0.878907)" fill="none" stroke-linejoin="miter" d="M 2.046655 21.565094 C 2.046655 21.821567 1.841477 22.026745 1.585004 22.026745 C 1.332805 22.026745 1.123352 21.821567 1.123352 21.565094 L 1.123352 19.196994 C 1.123352 18.940522 1.332805 18.735343 1.585004 18.735343 C 1.841477 18.735343 2.046655 18.940522 2.046655 19.196994 Z M 2.046655 21.565094 " stroke="#05ec07" stroke-width="0.25" stroke-opacity="1" stroke-miterlimit="4"/></g><g clip-path="url(#9f72431692)"><g clip-path="url(#98e62ffc6b)"><path fill="#05ec07" d="M 1.222656 1.703125 L 1.222656 29.300781 L 37.777344 29.300781 L 37.777344 1.703125 Z M 1.222656 1.703125 " fill-opacity="1" fill-rule="nonzero"/></g></g><g clip-path="url(#622ccb0702)"><path stroke-linecap="butt" transform="matrix(0.913839, 0, 0, 0.913839, 0.309374, 0.878907)" fill="none" stroke-linejoin="miter" d="M 38.74365 4.723375 L 36.315707 4.723375 L 36.315707 4.445529 C 36.315707 3.663287 35.678799 3.026379 34.896557 3.026379 L 34.648633 3.026379 L 34.648633 2.321079 C 34.648633 1.538836 34.011725 0.901929 33.229483 0.901929 L 30.429654 0.901929 C 29.647412 0.901929 29.00623 1.538836 29.00623 2.321079 L 29.00623 3.026379 L 28.758306 3.026379 C 27.976063 3.026379 27.339156 3.663287 27.339156 4.445529 L 27.339156 4.723375 L 18.999513 4.723375 L 18.999513 4.112114 C 18.999513 3.329872 18.362605 2.692964 17.576088 2.692964 L 16.447607 2.692964 C 15.665365 2.692964 15.028457 3.329872 15.028457 4.112114 L 15.028457 4.723375 L 13.656327 4.723375 L 13.656327 3.278577 C 13.656327 2.496335 13.01942 1.859427 12.237177 1.859427 L 6.098926 1.859427 C 5.316684 1.859427 4.679776 2.496335 4.679776 3.278577 L 4.679776 4.723375 L 3.256352 4.723375 C 2.012458 4.723375 0.999391 5.736443 0.999391 6.976062 L 0.999391 16.645089 C 0.999391 16.969955 1.264413 17.230702 1.585004 17.230702 C 1.909869 17.230702 2.170617 16.969955 2.170617 16.645089 L 2.170617 11.083902 L 5.380802 11.083902 C 5.637275 12.028577 6.500734 12.725329 7.526625 12.725329 C 8.552517 12.725329 9.415976 12.028577 9.672449 11.083902 L 14.327431 11.083902 C 11.625917 13.114313 9.873352 16.345871 9.873352 19.979237 C 9.873352 22.364435 10.629947 24.574376 11.912312 26.386784 L 2.170617 26.386784 L 2.170617 24.116999 C 2.170617 23.792134 1.909869 23.531386 1.585004 23.531386 C 1.264413 23.531386 0.999391 23.792134 0.999391 24.116999 L 0.999391 27.780287 C 0.999391 29.02418 2.012458 30.032974 3.256352 30.032974 L 16.250978 30.032974 C 17.691501 30.716902 19.303005 31.101611 21.000001 31.101611 C 22.701271 31.101611 24.308501 30.716902 25.753298 30.032974 C 25.757573 30.032974 25.761848 30.032974 25.766122 30.032974 L 38.74365 30.032974 C 39.987544 30.032974 41.000611 29.02418 41.000611 27.780287 L 41.000611 6.976062 C 41.000611 5.736443 39.987544 4.723375 38.74365 4.723375 Z M 30.18173 2.321079 C 30.18173 2.184293 30.292869 2.073155 30.429654 2.073155 L 33.229483 2.073155 C 33.366269 2.073155 33.477407 2.184293 33.477407 2.321079 L 33.477407 3.026379 L 30.18173 3.026379 Z M 28.510382 4.445529 C 28.510382 4.308744 28.62152 4.197605 28.758306 4.197605 L 34.896557 4.197605 C 35.033342 4.197605 35.144481 4.308744 35.144481 4.445529 L 35.144481 4.723375 L 28.510382 4.723375 Z M 16.199684 4.112114 C 16.199684 3.975329 16.310822 3.864191 16.447607 3.864191 L 17.576088 3.864191 C 17.717148 3.864191 17.828286 3.975329 17.828286 4.112114 L 17.828286 4.723375 L 16.199684 4.723375 Z M 5.851003 3.278577 C 5.851003 3.141792 5.962141 3.030654 6.098926 3.030654 L 12.237177 3.030654 C 12.373963 3.030654 12.485101 3.141792 12.485101 3.278577 L 12.485101 4.723375 L 5.851003 4.723375 Z M 7.526625 11.554103 C 6.945287 11.554103 6.470812 11.079628 6.470812 10.498289 C 6.470812 9.916951 6.945287 9.442476 7.526625 9.442476 C 8.107964 9.442476 8.582439 9.916951 8.582439 10.498289 C 8.582439 11.079628 8.107964 11.554103 7.526625 11.554103 Z M 9.672449 9.912676 C 9.415976 8.968001 8.552517 8.27125 7.526625 8.27125 C 6.500734 8.27125 5.637275 8.968001 5.380802 9.912676 L 2.170617 9.912676 L 2.170617 6.976062 C 2.170617 6.381899 2.657915 5.894601 3.256352 5.894601 L 38.74365 5.894601 C 39.342087 5.894601 39.829385 6.381899 39.829385 6.976062 L 39.829385 9.912676 L 38.08537 9.912676 L 38.08537 7.783951 C 38.08537 7.459085 37.820348 7.198338 37.499757 7.198338 L 32.045433 7.198338 C 31.720568 7.198338 31.45982 7.459085 31.45982 7.783951 L 31.45982 9.912676 L 25.727651 9.912676 C 24.261481 9.224474 22.649977 8.856863 21.000001 8.856863 C 19.311555 8.856863 17.708599 9.237297 16.272351 9.912676 Z M 32.631046 9.912676 L 32.631046 8.369564 L 36.914143 8.369564 L 36.914143 9.912676 Z M 3.256352 28.861748 C 2.657915 28.861748 2.170617 28.378724 2.170617 27.780287 L 2.170617 27.55801 L 12.865536 27.55801 C 13.310089 28.032485 13.793113 28.468489 14.314608 28.861748 Z M 11.044579 19.979237 C 11.044579 14.490717 15.511481 10.028089 21.000001 10.028089 C 23.84685 10.028089 26.565463 11.25061 28.454813 13.383609 C 28.66854 13.627258 29.040426 13.648631 29.279801 13.434904 C 29.52345 13.221176 29.544823 12.849291 29.331095 12.605641 C 28.826699 12.041401 28.271007 11.53273 27.676845 11.083902 L 39.829385 11.083902 L 39.829385 26.386784 L 30.08769 26.386784 C 30.985345 25.121518 31.622253 23.663897 31.925746 22.090864 L 33.456034 22.090864 C 34.323767 22.090864 35.024793 21.385563 35.024793 20.522104 L 35.024793 19.064483 C 35.024793 18.201025 34.323767 17.495724 33.456034 17.495724 L 31.844529 17.495724 C 31.630802 16.563873 31.301662 15.661943 30.857109 14.815583 C 30.7075 14.529188 30.352712 14.41805 30.066317 14.571933 C 29.779923 14.721543 29.668785 15.072056 29.818394 15.35845 C 30.562165 16.773326 30.955423 18.372007 30.955423 19.979237 C 30.955423 25.463482 26.488521 29.930385 21.000001 29.930385 C 15.511481 29.930385 11.044579 25.463482 11.044579 19.979237 Z M 32.049708 18.66695 L 33.456034 18.66695 C 33.674036 18.66695 33.853567 18.846482 33.853567 19.064483 L 33.853567 20.522104 C 33.853567 20.740106 33.674036 20.919637 33.456034 20.919637 L 32.088179 20.919637 C 32.113826 20.607595 32.12665 20.295553 32.12665 19.979237 C 32.12665 19.538958 32.101002 19.102954 32.049708 18.66695 Z M 38.74365 28.861748 L 27.685394 28.861748 C 28.206889 28.468489 28.689913 28.032485 29.134466 27.55801 L 39.829385 27.55801 L 39.829385 27.780287 C 39.829385 28.378724 39.342087 28.861748 38.74365 28.861748 Z M 38.74365 28.861748 " stroke="#05ec07" stroke-width="0.25" stroke-opacity="1" stroke-miterlimit="4"/></g><g clip-path="url(#3ef7fbc25a)"><g clip-path="url(#80fb6d5e59)"><path fill="#05ec07" d="M 12.410156 12.046875 L 12.410156 26.222656 L 26.589844 26.222656 L 26.589844 12.046875 Z M 12.410156 12.046875 " fill-opacity="1" fill-rule="nonzero"/></g></g><path stroke-linecap="butt" transform="matrix(0.913839, 0, 0, 0.913839, 0.309374, 0.878907)" fill="none" stroke-linejoin="miter" d="M 13.241696 19.979237 C 13.241696 15.700414 16.721178 12.220932 21.000001 12.220932 C 25.278824 12.220932 28.758306 15.700414 28.758306 19.979237 C 28.758306 24.253785 25.278824 27.733267 21.000001 27.733267 C 16.721178 27.733267 13.241696 24.253785 13.241696 19.979237 Z M 14.164999 19.979237 C 14.164999 23.745114 17.22985 26.809965 21.000001 26.809965 C 24.770152 26.809965 27.835003 23.745114 27.835003 19.979237 C 27.835003 16.209085 24.770152 13.144234 21.000001 13.144234 C 17.22985 13.144234 14.164999 16.209085 14.164999 19.979237 Z M 14.164999 19.979237 " stroke="#05ec07" stroke-width="0.25" stroke-opacity="1" stroke-miterlimit="4"/><g clip-path="url(#519687d6bf)"><g clip-path="url(#9128e2645c)"><path fill="#05ec07" d="M 14.582031 14.21875 L 14.582031 24.050781 L 24.417969 24.050781 L 24.417969 14.21875 Z M 14.582031 14.21875 " fill-opacity="1" fill-rule="nonzero"/></g></g><path stroke-linecap="butt" transform="matrix(0.913839, 0, 0, 0.913839, 0.309374, 0.878907)" fill="none" stroke-linejoin="miter" d="M 15.618345 19.979237 C 15.618345 17.0127 18.033465 14.597581 21.000001 14.597581 C 23.966537 14.597581 26.381657 17.0127 26.381657 19.979237 C 26.381657 22.945773 23.966537 25.356618 21.000001 25.356618 C 18.033465 25.356618 15.618345 22.945773 15.618345 19.979237 Z M 16.541647 19.979237 C 16.541647 22.437102 18.542136 24.43759 21.000001 24.43759 C 23.457866 24.43759 25.458355 22.437102 25.458355 19.979237 C 25.458355 17.521372 23.457866 15.520883 21.000001 15.520883 C 18.542136 15.520883 16.541647 17.521372 16.541647 19.979237 Z M 16.541647 19.979237 " stroke="#05ec07" stroke-width="0.25" stroke-opacity="1" stroke-miterlimit="4"/></svg>