<svg xmlns="http://www.w3.org/2000/svg" xmlns:xlink="http://www.w3.org/1999/xlink" width="42" zoomAndPan="magnify" viewBox="0 0 31.5 44.999999" height="60" preserveAspectRatio="xMidYMid meet" version="1.0"><defs><filter x="0%" y="0%" width="100%" height="100%" id="e004b440f9"><feColorMatrix values="0 0 0 0 1 0 0 0 0 1 0 0 0 0 1 0 0 0 1 0" color-interpolation-filters="sRGB"/></filter><mask id="d0f9830417"><g filter="url(#e004b440f9)"><rect x="-3.15" width="37.8" fill="#000000" y="-4.5" height="53.999999" fill-opacity="0.15"/></g></mask><clipPath id="cd09ac8374"><path d="M 0.253906 0.296875 L 22.695312 0.296875 L 22.695312 42.585938 L 0.253906 42.585938 Z M 0.253906 0.296875 " clip-rule="nonzero"/></clipPath><clipPath id="c8672af819"><path d="M 2.644531 0.457031 C 1.421875 0.457031 0.429688 1.449219 0.429688 2.671875 L 0.429688 40.324219 C 0.429688 41.550781 1.421875 42.539062 2.644531 42.539062 L 20.253906 42.539062 C 21.476562 42.539062 22.46875 41.550781 22.46875 40.324219 L 22.46875 2.671875 C 22.46875 1.449219 21.476562 0.457031 20.253906 0.457031 L 16.667969 0.457031 L 16.667969 1.566406 L 6.230469 1.566406 L 6.230469 0.457031 Z M 2.644531 0.457031 " clip-rule="evenodd"/></clipPath><clipPath id="ff3bb0ce39"><rect x="0" width="23" y="0" height="43"/></clipPath><clipPath id="f7b70d0d98"><path d="M 3.320312 0.351562 L 27.683594 0.351562 L 27.683594 44.648438 L 3.320312 44.648438 Z M 3.320312 0.351562 " clip-rule="nonzero"/></clipPath><clipPath id="dd16ea67ec"><path d="M 12.746094 39.859375 C 12.332031 39.859375 11.996094 40.195312 11.996094 40.605469 C 11.996094 41.019531 12.332031 41.355469 12.746094 41.355469 Z M 18.230469 41.355469 C 18.644531 41.355469 18.980469 41.019531 18.980469 40.605469 C 18.980469 40.195312 18.644531 39.859375 18.230469 39.859375 Z M 3.765625 32.925781 C 3.765625 33.339844 4.101562 33.675781 4.515625 33.675781 C 4.929688 33.675781 5.261719 33.339844 5.261719 32.925781 Z M 5.261719 36.21875 C 5.261719 35.804688 4.929688 35.46875 4.515625 35.46875 C 4.101562 35.46875 3.765625 35.804688 3.765625 36.21875 Z M 25.714844 8.78125 C 25.714844 9.195312 26.046875 9.53125 26.460938 9.53125 C 26.875 9.53125 27.210938 9.195312 27.210938 8.78125 Z M 27.210938 12.074219 C 27.210938 11.660156 26.875 11.324219 26.460938 11.324219 C 26.046875 11.324219 25.714844 11.660156 25.714844 12.074219 Z M 23.789062 43.152344 L 7.1875 43.152344 L 7.1875 44.648438 L 23.789062 44.648438 Z M 7.1875 1.847656 L 10.550781 1.847656 L 10.550781 0.351562 L 7.1875 0.351562 Z M 9.800781 2.226562 L 11.300781 2.226562 L 11.300781 1.101562 L 9.800781 1.101562 Z M 11.621094 4.042969 L 19.355469 4.042969 L 19.355469 2.546875 L 11.621094 2.546875 Z M 10.550781 1.847656 L 20.425781 1.847656 L 20.425781 0.351562 L 10.550781 0.351562 Z M 20.425781 1.847656 L 23.789062 1.847656 L 23.789062 0.351562 L 20.425781 0.351562 Z M 21.175781 2.226562 L 21.175781 1.101562 L 19.675781 1.101562 L 19.675781 2.226562 Z M 12.746094 41.355469 L 18.230469 41.355469 L 18.230469 39.859375 L 12.746094 39.859375 Z M 5.261719 32.925781 L 5.261719 3.777344 L 3.765625 3.777344 L 3.765625 32.925781 Z M 5.261719 41.222656 L 5.261719 36.21875 L 3.765625 36.21875 L 3.765625 41.222656 Z M 25.714844 3.777344 L 25.714844 8.78125 L 27.210938 8.78125 L 27.210938 3.777344 Z M 25.714844 12.074219 L 25.714844 41.222656 L 27.210938 41.222656 L 27.210938 12.074219 Z M 19.355469 4.042969 C 20.359375 4.042969 21.175781 3.230469 21.175781 2.226562 L 19.675781 2.226562 C 19.675781 2.402344 19.535156 2.546875 19.355469 2.546875 Z M 7.1875 43.152344 C 6.125 43.152344 5.261719 42.289062 5.261719 41.222656 L 3.765625 41.222656 C 3.765625 43.117188 5.296875 44.648438 7.1875 44.648438 Z M 23.789062 44.648438 C 25.679688 44.648438 27.210938 43.117188 27.210938 41.222656 L 25.714844 41.222656 C 25.714844 42.289062 24.851562 43.152344 23.789062 43.152344 Z M 23.789062 1.847656 C 24.851562 1.847656 25.714844 2.710938 25.714844 3.777344 L 27.210938 3.777344 C 27.210938 1.882812 25.679688 0.351562 23.789062 0.351562 Z M 9.800781 2.226562 C 9.800781 3.230469 10.617188 4.042969 11.621094 4.042969 L 11.621094 2.546875 C 11.441406 2.546875 11.300781 2.402344 11.300781 2.226562 Z M 7.1875 0.351562 C 5.296875 0.351562 3.765625 1.882812 3.765625 3.777344 L 5.261719 3.777344 C 5.261719 2.710938 6.125 1.847656 7.1875 1.847656 Z M 7.1875 0.351562 " clip-rule="nonzero"/></clipPath></defs><g mask="url(#d0f9830417)"><g transform="matrix(1, 0, 0, 1, 4, 1)"><g clip-path="url(#ff3bb0ce39)"><g clip-path="url(#cd09ac8374)"><g clip-path="url(#c8672af819)"><path fill="#04aa0b" d="M 0.429688 0.457031 L 0.429688 42.539062 L 22.46875 42.539062 L 22.46875 0.457031 Z M 0.429688 0.457031 " fill-opacity="1" fill-rule="nonzero"/></g></g></g></g></g><g clip-path="url(#f7b70d0d98)"><g clip-path="url(#dd16ea67ec)"><path fill="#04aa0b" d="M 3.765625 0.351562 L 3.765625 44.648438 L 27.210938 44.648438 L 27.210938 0.351562 Z M 3.765625 0.351562 " fill-opacity="1" fill-rule="nonzero"/></g></g></svg>